Coordinates
version=1
nRows=15
nColumns=42
inDegrees=yes

Units are S.I. units (second, meters, Newtons, ...)
If the header above contains a line with 'inDegrees', this indicates whether rotational values are in degrees (yes) or radians (no).

endheader
time	pelvis_tilt	pelvis_list	pelvis_rotation	pelvis_tx	pelvis_ty	pelvis_tz	hip_flexion_r	hip_adduction_r	hip_rotation_r	knee_angle_r	knee_adduction_r	knee_angle_r_beta	ankle_angle_r	subtalar_angle_r	mtp_angle_r	hip_flexion_l	hip_adduction_l	hip_rotation_l	knee_angle_l	knee_adduction_l	knee_angle_l_beta	ankle_angle_l	subtalar_angle_l	mtp_angle_l	lumbar_extension	lumbar_bending	lumbar_rotation	arm_flex_r	arm_add_r	arm_rot_r	elbow_flex_r	pro_sup_r	wrist_flex_r	wrist_dev_r	arm_flex_l	arm_add_l	arm_rot_l	elbow_flex_l	pro_sup_l	wrist_flex_l	wrist_dev_l
      1.45000000	      6.73443613	     -2.60832119	      9.31095723	     -0.16450732	      0.86367194	      0.19859388	      5.87489697	     12.20416574	     -6.74629290	     26.82908753	     -4.81558299	      0.46825591	     22.58486306	    -14.48483409	     -7.66883189	     26.34909829	      2.68099424	      0.07651119	     59.71292831	    -11.29372744	      1.04218721	     17.37114805	    -19.33178422	     -7.66883189	    -35.96967951	      6.07183778	     -1.00226030	     17.10072917	    -10.53504945	     -4.19918361	     37.65983903	     90.00000001	      0.00000000	      0.00000000	     13.78040275	     -7.16962809	    -15.04778386	     25.45531403	     90.00000001	      0.00000000	      0.00000000
      1.46000000	      7.04255741	     -2.52856231	      9.20032211	     -0.15589431	      0.86388365	      0.19850242	      4.72326522	     12.27181218	     -6.56518867	     26.67046988	     -4.76074064	      0.46548751	     23.32458161	    -14.24933706	     -7.66421421	     26.55271868	      2.82927222	     -0.09949849	     57.41628965	    -11.03662707	      1.00210330	     16.85859744	    -19.29741392	     -7.66421421	    -36.21914468	      6.00076959	     -0.90676720	     17.61955803	    -10.78905201	     -3.68309351	     38.17907606	     90.00000001	      0.00000000	      0.00000000	     13.57181159	     -7.04003006	    -15.71268046	     24.81516132	     90.00000001	      0.00000000	      0.00000000
      1.47000000	      7.19944444	     -2.57822989	      9.07847341	     -0.14740759	      0.86355353	      0.19852847	      3.80262636	     12.52434020	     -6.47050234	     26.50277633	     -4.89222997	      0.46256071	     23.88941881	    -13.96935387	     -7.65913323	     26.98922968	      2.81803738	     -0.31603607	     55.15251449	    -10.77195666	      0.96259297	     16.48618701	    -19.25601352	     -7.65913323	    -36.29903624	      6.03054961	     -0.76793507	     18.14503149	    -11.02422164	     -3.21262098	     38.66757545	     90.00000001	      0.00000000	      0.00000000	     13.28048630	     -6.88410515	    -16.43805126	     24.38684463	     90.00000001	      0.00000000	      0.00000000
      1.48000000	      7.33074048	     -2.65004419	      8.96833270	     -0.13894962	      0.86303262	      0.19843443	      2.93391328	     12.77686144	     -6.41396412	     26.37628906	     -5.01015846	      0.46035309	     24.47128929	    -13.66873867	     -7.65350585	     27.42753191	      2.78486581	     -0.55130295	     52.80557103	    -10.48043385	      0.92163108	     16.11530162	    -19.20462983	     -7.65350585	    -36.33345634	      6.09647468	     -0.62392377	     18.65023899	    -11.25229960	     -2.77313156	     39.12872110	     90.00000001	      0.00000000	      0.00000000	     12.99405341	     -6.73594667	    -17.14125677	     24.00908634	     90.00000001	      0.00000000	      0.00000000
      1.49000000	      7.43456528	     -2.73297163	      8.83407117	     -0.13049796	      0.86233985	      0.19835935	      2.09433596	     13.04836839	     -6.41741206	     26.23238262	     -5.20694216	      0.45784145	     25.04542616	    -13.32440084	     -7.64669595	     27.88578984	      2.67295173	     -0.95560833	     50.44714271	    -10.15600520	      0.88046874	     15.78079501	    -19.12976073	     -7.64669595	    -36.35430378	      6.16312248	     -0.47872443	     19.18584868	    -11.45527476	     -2.34933095	     39.58533419	     90.00000001	      0.00000000	      0.00000000	     12.70392285	     -6.59045443	    -17.86997500	     23.69118078	     90.00000001	      0.00000000	      0.00000000
      1.50000000	      7.29089290	     -3.05230031	      8.77089476	     -0.12226849	      0.86076462	      0.19829770	      1.70729141	     13.54150690	     -6.62925310	     26.27532131	     -5.43242107	      0.45859087	     25.45590184	    -13.03741378	     -7.64475140	     28.82652091	      2.28354994	     -1.32848892	     48.37579471	     -9.71801371	      0.84431690	     15.63275817	    -19.03757396	     -7.64475140	    -36.07013452	      6.47865359	     -0.28613302	     19.69718473	    -11.58793169	     -2.27108086	     39.96584990	     90.00000001	      0.00000000	      0.00000000	     12.24265978	     -6.49476699	    -17.94221213	     23.64421781	     90.00000001	      0.00000000	      0.00000000
      1.51000000	      7.58188159	     -2.88399218	      8.55163272	     -0.11379130	      0.86061320	      0.19794808	      0.58572592	     13.42491257	     -6.48817622	     26.19382994	     -5.40861417	      0.45716858	     26.35220653	    -12.65793259	     -7.64053884	     28.67846946	      2.43669147	     -1.86016835	     45.49161729	     -9.37880296	      0.79397850	     15.03707079	    -18.95186289	     -7.64053884	    -36.36232513	      6.29148986	     -0.15814385	     20.22083009	    -11.80560403	     -1.74404228	     40.41671208	     90.00000001	      0.00000000	      0.00000000	     12.09959595	     -6.37636695	    -18.49618079	     23.32976275	     90.00000001	      0.00000000	      0.00000000
      1.52000000	      7.63273402	     -2.97047855	      8.37747525	     -0.10542735	      0.85959977	      0.19779455	     -0.15943322	     13.65144312	     -6.55603194	     26.12294608	     -5.62853104	      0.45593142	     26.97049502	    -12.20718910	     -7.63703335	     29.04458542	      2.22355995	     -2.52566383	     43.02636886	     -8.94431866	      0.75095180	     14.75341032	    -18.79280363	     -7.63703335	    -36.34754096	      6.34164720	     -0.00075787	     20.73321493	    -11.94742422	     -1.39199027	     40.80516267	     90.00000001	      0.00000000	      0.00000000	     11.82333259	     -6.27804737	    -18.91331239	     23.20078361	     90.00000001	      0.00000000	      0.00000000
      1.53000000	      7.59340213	     -3.13216857	      8.24774381	     -0.09717085	      0.85826837	      0.19755792	     -0.76240795	     13.95262652	     -6.68063923	     26.08759963	     -5.87190372	      0.45531451	     27.54075140	    -11.79938738	     -7.63437436	     29.53501377	      1.97573181	     -3.19652188	     40.68021844	     -8.55477846	      0.71000375	     14.57139241	    -18.55420801	     -7.63437436	    -36.25083564	      6.47810044	      0.18292592	     21.21928590	    -12.09991192	     -1.13396881	     41.13995566	     90.00000001	      0.00000000	      0.00000000	     11.53935049	     -6.17043038	    -19.18727241	     23.13481286	     90.00000001	      0.00000000	      0.00000000
      1.54000000	      7.74200853	     -3.12682088	      8.07618091	     -0.08876082	      0.85745915	      0.19708570	     -1.64554558	     13.92818479	     -6.77973820	     26.05995209	     -5.83703855	      0.45483197	     28.25141976	    -11.21039865	     -7.63100400	     29.57723025	      1.86164944	     -3.93823906	     38.18889305	     -8.08359479	      0.66652192	     14.28183825	    -18.25992617	     -7.63100400	    -36.35781196	      6.47214986	      0.27504887	     21.74249999	    -12.20208819	     -0.70047314	     41.48854286	     90.00000001	      0.00000000	      0.00000000	     11.36020004	     -6.07052875	    -19.61736933	     22.99932198	     90.00000001	      0.00000000	      0.00000000
      1.55000000	      7.89601546	     -3.14585619	      7.97361724	     -0.08030910	      0.85656585	      0.19641209	     -2.55932064	     13.93196521	     -7.01358680	     25.96357823	     -5.86283864	      0.45314993	     28.91768721	    -10.39106854	     -7.62653940	     29.60694480	      1.78341611	     -4.66745953	     35.88968906	     -7.69174609	      0.62639324	     14.10072976	    -17.81525904	     -7.62653940	    -36.45994469	      6.53190400	      0.34246612	     22.24077625	    -12.35799761	     -0.22998940	     41.79311180	     90.00000001	      0.00000000	      0.00000000	     11.22128046	     -5.96397545	    -20.21482629	     22.88019206	     90.00000001	      0.00000000	      0.00000000
      1.56000000	      7.83103142	     -3.33016897	      7.83877780	     -0.07197575	      0.85502518	      0.19607632	     -3.10370019	     14.20760895	     -7.20129317	     26.00436189	     -6.09811609	      0.45386173	     29.45748171	     -9.91880779	     -7.62387417	     30.00734460	      1.45012743	     -5.32819813	     34.02540316	     -7.15217252	      0.59385531	     14.04900340	    -17.15570443	     -7.62387417	    -36.32879708	      6.68179892	      0.49220684	     22.68519584	    -12.40168131	      0.00716764	     42.05094545	     90.00000001	      0.00000000	      0.00000000	     11.00659147	     -5.87223108	    -20.42896422	     22.87393581	     90.00000001	      0.00000000	      0.00000000
      1.57000000	      8.03303382	     -3.31941095	      7.72817629	     -0.06331933	      0.85416016	      0.19530152	     -4.08631263	     14.12466245	     -7.48894109	     25.93237977	     -6.06172890	      0.45260541	     30.14953000	     -8.99449301	     -7.61894548	     29.86057894	      1.40164212	     -6.01029536	     32.12855407	     -6.78801447	      0.56074905	     14.00178845	    -16.34038397	     -7.61894548	    -36.47101875	      6.70194473	      0.49934995	     23.15274715	    -12.48041298	      0.51348468	     42.29521523	     90.00000001	      0.00000000	      0.00000000	     10.90178340	     -5.79261529	    -20.97571362	     22.75931711	     90.00000001	      0.00000000	      0.00000000
      1.58000000	      7.91022233	     -3.59553565	      7.76459367	     -0.05489162	      0.85227633	      0.19453201	     -4.52116445	     14.40780786	     -7.69957967	     26.07562166	     -6.06049199	      0.45510545	     30.29367068	     -8.76643761	     -7.61771046	     30.50347597	      1.06891271	     -6.54588844	     31.24304127	     -6.34790498	      0.54529394	     14.00168242	    -15.84782925	     -7.61771046	    -36.21817230	      7.03736438	      0.52028912	     23.51403036	    -12.45466407	      0.56061208	     42.54675713	     90.00000001	      0.00000000	      0.00000000	     10.65911642	     -5.72788942	    -20.97868563	     22.82248115	     90.00000001	      0.00000000	      0.00000000
      1.59000000	      7.86459453	     -3.80861005	      7.62752925	     -0.04622639	      0.85068080	      0.19418973	     -5.11158603	     14.74800255	     -7.72134530	     26.13846555	     -6.29594913	      0.45620229	     30.72492871	     -8.67187590	     -7.61721706	     30.76379711	      0.78581907	     -6.80374219	     30.26089598	     -5.94257157	      0.52815227	     13.92301974	    -15.42000459	     -7.61721706	    -36.05805345	      7.17291767	      0.63958046	     23.87291506	    -12.39576238	      0.71295382	     42.68877435	     90.00000001	      0.00000000	      0.00000000	     10.49990620	     -5.69639593	    -21.07327051	     22.76129659	     90.00000001	      0.00000000	      0.00000000
